/* XPM */
static char *_6672acf793b43f1ffade95c5a6faa94HCsXqWDqvV9qN5KU[] = {
/* columns rows colors chars-per-pixel */
"16 16 3 1 ",
"  c #222222",
". c #483B3A",
"X c #775C55",
/* pixels */
"   .    ... .   ",
" ..............X",
"...............X",
"...............X",
" ..............X",
"...............X",
" ...............",
" ..............X",
" ...............",
"...............X",
"...............X",
" ...............",
" ...............",
" ..............X",
" ..............X",
"XXX..X.XXXX.XXXX"
};
